<?xml version="1.0" encoding="UTF-8" standalone="no"?>
<!-- Created with Inkscape (http://www.inkscape.org/) -->

<svg
   xmlns:dc="http://purl.org/dc/elements/1.1/"
   xmlns:cc="http://creativecommons.org/ns#"
   xmlns:rdf="http://www.w3.org/1999/02/22-rdf-syntax-ns#"
   xmlns:svg="http://www.w3.org/2000/svg"
   xmlns="http://www.w3.org/2000/svg"
   xmlns:sodipodi="http://sodipodi.sourceforge.net/DTD/sodipodi-0.dtd"
   xmlns:inkscape="http://www.inkscape.org/namespaces/inkscape"
   id="svg2"
   version="1.1"
   inkscape:version="0.48.4 r9939"
   width="721.52393"
   height="721.55969"
   sodipodi:docname="EP-Circular.jpg"
   inkscape:export-filename="/home/arthur/Dropbox/Pesquisa/Mestrado/latex/apresentacao/AAUgraphics/EP-Circular.png"
   inkscape:export-xdpi="49"
   inkscape:export-ydpi="49">
  <metadata
     id="metadata8">
    <rdf:RDF>
      <cc:Work
         rdf:about="">
        <dc:format>image/svg+xml</dc:format>
        <dc:type
           rdf:resource="http://purl.org/dc/dcmitype/StillImage" />
        <dc:title></dc:title>
      </cc:Work>
    </rdf:RDF>
  </metadata>
  <defs
     id="defs6" />
  <sodipodi:namedview
     pagecolor="#ffffff"
     bordercolor="#666666"
     borderopacity="1"
     objecttolerance="10"
     gridtolerance="10"
     guidetolerance="10"
     inkscape:pageopacity="0"
     inkscape:pageshadow="2"
     inkscape:window-width="1920"
     inkscape:window-height="1021"
     id="namedview4"
     showgrid="false"
     inkscape:zoom="0.46226371"
     inkscape:cx="823.15"
     inkscape:cy="209.6704"
     inkscape:window-x="0"
     inkscape:window-y="0"
     inkscape:window-maximized="1"
     inkscape:current-layer="svg2"
     fit-margin-top="0"
     fit-margin-left="0"
     fit-margin-right="0"
     fit-margin-bottom="0" />
  <path
     style="fill:#2f3440;fill-opacity:1"
     d="m 341.80471,721.03206 c -64.28469,-4.58253 -117.28596,-21.08133 -168.82535,-52.55374 -11.58212,-7.07259 -22.36757,-14.58513 -23.00798,-16.02606 -0.18334,-0.4125 -0.80593,-0.75 -1.38354,-0.75 -0.57761,0 -6.50261,-4.34551 -13.16667,-9.65668 -13.54184,-10.7927 -42.066391,-38.85867 -51.165901,-50.34332 -3.26831,-4.125 -6.19498,-7.725 -6.5037,-8 -3.67485,-3.27347 -19.83079,-26.96998 -29.18378,-42.80494 C 13.846989,482.11378 -3.9453211,407.0841 0.73842888,339.20226 5.5314189,269.73727 25.905459,211.54069 65.680139,153.70226 c 3.59316,-5.225 6.81026,-9.725 7.1491,-10 0.33885,-0.275 4.12575,-4.93002 8.41534,-10.34448 14.94572,-18.86499 37.638531,-40.876462 61.060131,-59.226817 29.99327,-23.499131 69.63348,-44.340969 108.02266,-56.795639 81.21659,-26.3492381 170.91248,-22.5389461 249.47734,10.597828 11.25018,4.745055 32.85456,15.429172 42,20.770456 16.63915,9.717897 41.94886,27.939964 56,40.317959 13.38929,11.794953 38.38409,38.122373 44.79253,47.180693 0.38911,0.55 2.56486,3.25 4.835,6 14.95016,18.11027 36.91208,56.36963 47.51058,82.76707 9.78718,24.3767 17.6115,52.01204 21.72519,76.73293 10.53723,63.32261 3.87425,128.04338 -19.49111,189.32687 -4.16501,10.92413 -14.07364,32.21283 -18.976,40.76996 -2.0176,3.52174 -4.61963,8.19139 -5.78228,10.377 -3.81418,7.17006 -20.02483,30.7997 -29.06394,42.36536 -4.87416,6.23655 -15.86763,18.54928 -24.42992,27.36162 -50.14546,51.60985 -112.48665,86.22057 -183.12005,101.66499 -28.15258,6.15574 -67.9842,9.31854 -94,7.464 z m 35,-16.31756 c 18.29411,-0.98268 36.28669,-3.04663 49,-5.62084 61.37898,-12.4281 115.84347,-39.16216 161.31651,-79.18269 36.73794,-32.33283 62.96148,-66.56797 83.26908,-108.70871 18.87604,-39.17009 29.1209,-75.30877 33.45153,-118 1.43205,-14.1172 1.39949,-50.65764 -0.0584,-65.5 -7.8918,-80.3455 -43.40668,-154.84465 -100.97872,-211.82192 -9.41411,-9.31686 -26.57508,-24.38313 -32,-28.094037 -1.925,-1.316792 -3.95,-2.910865 -4.5,-3.542386 -1.37272,-1.576178 -25.41213,-17.322525 -34,-22.270748 C 500.63523,43.725611 464.04242,30.00528 427.80471,22.791314 362.9636,9.8831679 294.58837,16.222389 233.30471,40.823849 194.65886,56.337679 159.00627,78.670918 128.9355,106.20206 66.274349,163.57116 27.782979,239.23709 18.292819,323.70226 c -2.15923,19.21775 -2.15623,54.67912 0.006,74 5.12865,45.82239 18.69811,88.59379 41.0417,129.36492 9.52631,17.383 27.23225,43.23468 38.08633,55.60821 32.180021,36.68486 64.653961,62.79137 102.634391,82.51002 46.59858,24.19302 92.08871,36.81516 142.24322,39.46819 7.7,0.40731 14.675,0.79914 15.5,0.87074 0.825,0.0716 9.375,-0.29283 19,-0.80984 z M 339.859,691.67293 c -53.262,-3.61726 -102.73951,-18.80426 -147.55429,-45.29143 -15.8763,-9.38347 -38.5,-25.16762 -38.5,-26.86076 0,-0.41503 -1.07958,-1.33148 -2.39906,-2.03654 -9.9478,-5.31562 -42.54084,-39.08012 -57.707811,-59.78194 -33.38745,-45.57149 -54.00591,-95.26091 -61.9293,-149.24643 -14.1401,-96.34268 14.2457,-192.64508 78.466201,-266.20641 14.67667,-16.81138 46.88731,-46.54716 50.4212,-46.54716 0.63182,0 1.14877,-0.417837 1.14877,-0.928527 0,-1.490238 27.32894,-19.200167 41.5,-26.893176 31.92072,-17.328724 67.35574,-29.345746 105,-35.608474 34.42367,-5.726932 75.62354,-5.166301 112.84225,1.535511 80.77921,14.545561 154.40706,60.839258 205.79587,129.394666 11.57266,15.43856 26.29356,39.5718 32.63415,53.5 18.01646,39.57627 27.36555,73.09109 31.20266,111.85595 1.55797,15.73965 1.26798,52.52088 -0.53727,68.14405 -6.89422,59.66471 -28.98833,114.97111 -65.31589,163.5 -11.65575,15.57058 -35.14859,40.24189 -51.62177,54.21128 -37.82059,32.07219 -84.97902,56.03605 -134.29713,68.24395 -30.99271,7.67175 -68.59244,11.09063 -99.14858,9.01544 z m 37.92843,-6.99095 c 62.91324,-3.82607 120.96697,-24.18099 171.01728,-59.96244 41.66463,-29.78644 76.8659,-70.39752 99.8871,-115.23797 25.02705,-48.7474 36.09605,-94.37398 36.09384,-148.77931 -0.002,-45.45829 -7.0926,-82.29614 -23.66037,-122.92023 -14.11187,-34.60225 -29.82359,-60.08709 -56.76832,-92.07977 -7.32368,-8.69573 -29.40135,-29.69912 -40.67019,-38.69121 -11.52241,-9.194437 -25.37292,-19.30879 -26.44128,-19.30879 -0.25487,0 -3.04581,-1.753262 -6.20209,-3.896139 -8.38933,-5.695724 -35.04217,-19.319647 -47.73869,-24.40221 -54.81596,-21.943464 -111.91158,-29.151767 -167.5,-21.146819 -49.53927,7.133847 -94.91943,24.401389 -135.35297,51.502971 -20.43919,13.699877 -33.49426,24.496677 -51.1609,42.311107 -51.846361,52.28003 -83.015601,117.13164 -92.102481,191.63109 -1.99787,16.37961 -2.27208,53.78914 -0.50578,69 4.87853,42.0125 15.16596,77.07531 33.18386,113.10109 29.20525,58.39428 74.946451,106.20803 132.312231,138.30731 41.45367,23.19559 89.70489,37.46023 136.85307,40.45825 19.10496,1.21483 20.56894,1.2191 38.75569,0.11307 z m -31.59466,-24.97163 c -12.19688,-1.70952 -21.62573,-4.97233 -32.60654,-11.28332 -6.87333,-3.95031 -7.8466,-4.87595 -25.99696,-24.72477 -9.26982,-10.13726 -31.17746,-31.81496 -36.39925,-36.0172 -10.76479,-8.66298 -27.71617,-19.33477 -39.88531,-25.10993 l -5,-2.37287 -0.29204,-7.16242 -0.29204,-7.16242 5.79204,-2.18015 c 7.2524,-2.72984 17.5099,-4.95492 22.94658,-4.97765 3.99951,-0.0167 4.27327,-0.22774 7.33625,-5.65504 2.51478,-4.45593 2.90161,-5.81522 1.84546,-6.48468 -0.73494,-0.46586 -1.83739,-0.85391 -2.44989,-0.86233 -1.5879,-0.0218 -6.29425,-4.9365 -8.13383,-8.49386 -0.85897,-1.66106 -1.5326,-4.94909 -1.49696,-7.30674 l 0.0648,-4.28661 -10.02652,-5.03155 -10.02651,-5.03154 0.46368,-9.6825 c 0.7011,-14.63995 -0.92124,-43.2032 -3.21945,-56.68251 -3.10708,-18.2234 -8.85747,-35.78971 -20.33183,-62.10976 -5.72829,-13.13963 -11.62063,-27.49024 -13.09409,-31.89024 -11.89341,-35.51582 -14.02786,-71.22027 -6.42648,-107.5 16.99391,-81.10815 83.07934,-143.373661 171.34083,-161.436842 16.55489,-3.388047 28.72033,-4.563158 47.24045,-4.563158 25.31119,0 46.14745,3.321938 66.2643,10.564558 11.18441,4.026698 19.99525,8.259605 19.99525,9.60613 0,0.656494 -3.64248,7.629752 -8.09441,15.496127 -6.72858,11.889145 -8.37377,14.154605 -9.75,13.425995 -0.91057,-0.48208 -5.57137,-2.25486 -10.35733,-3.9395 l -8.70173,-3.06299 -3.01829,3.81089 c -5.36891,6.7788 -6.31303,12.09879 -2.14714,12.09879 2.02352,0 11.47164,3.30464 13.89263,4.85919 1.06063,0.68104 0.9123,1.52486 -0.74626,4.2454 -1.1385,1.86747 -2.07168,3.70428 -2.07373,4.08179 -0.002,0.37751 4.21393,2.68431 9.36887,5.12623 21.91335,10.38045 36.32582,24.01815 45.64091,43.18739 6.79288,13.97887 10.97768,34.6343 10.98366,54.21346 l 0.003,9.21346 10.25,7.70427 c 14.58813,10.96496 23.62502,19.2181 28.7517,26.25814 4.3109,5.91979 4.59123,6.11098 8.9741,6.12044 5.58221,0.012 14.25167,3.88157 16.54782,7.38593 2.14787,3.27806 2.14496,8.65428 -0.006,11.93776 -0.92556,1.41258 -3.55806,3.47488 -5.85,4.5829 -9.83645,4.75534 -46.81715,12.25152 -67.41717,13.66583 -7.37166,0.5061 -10.25,1.06806 -10.25,2.00117 0,5.08217 10.49506,28.18496 18.58748,40.91664 11.0336,17.35901 12.38377,21.72425 8.31799,26.89304 -2.40385,3.056 -7.82479,6.03432 -12.90547,7.0904 -1.925,0.40013 -4.9625,1.40632 -6.75,2.23598 -2.72687,1.26566 -3.25,2.0518 -3.25,4.884 0,1.85655 1.17433,6.30897 2.60963,9.89427 2.45282,6.12704 2.51291,6.66635 1,8.97534 -0.8853,1.35113 -2.62213,2.98339 -3.85963,3.62724 -1.2375,0.64385 -2.38675,1.28393 -2.55389,1.42241 -0.16713,0.13847 0.61868,1.76501 1.74626,3.61454 2.88089,4.7254 2.57846,6.93142 -1.47425,10.75405 -5.437,5.12831 -6.79394,8.48733 -6.06855,15.0223 1.96254,17.68045 1.92117,19.40035 -0.55316,22.99944 -4.37317,6.36108 -8.39234,7.58761 -24.84641,7.58239 -7.975,-0.003 -19.50745,-0.15506 -25.62766,-0.33895 -15.84594,-0.4761 -17.97676,0.88436 -25.59806,16.34355 -6.77267,13.73783 -10.21503,22.4779 -9.18921,23.33122 0.50321,0.41859 4.28993,1.58075 8.41493,2.58258 8.57138,2.08172 18.5796,6.46438 28.00908,12.26536 6.41139,3.94426 6.68904,4.01317 18.5,4.59162 17.02456,0.83377 26.47728,4.57451 35.08388,13.88375 8.62208,9.326 13.96478,25.19888 16.33924,48.54304 1.52439,14.98682 -1.20945,19.87771 -12.76587,22.83833 -6.69146,1.71427 -11.14435,1.4465 -19.35194,-1.16372 -4.09008,-1.30075 -5.0433,-1.30731 -7.5,-0.0516 -4.95275,2.5315 -27.45161,10.35648 -38.87034,13.5189 -6.08077,1.68406 -17.01696,3.93051 -24.30264,4.9921 -9.03784,1.3169 -13.62713,2.42609 -14.44405,3.49101 -2.55684,3.33303 -30.15383,6.38925 -42.3093,4.68552 z m 31.61194,-7.39069 c 5.92167,-1.10067 6.52767,-1.44383 6.81102,-3.85684 0.90926,-7.74321 -3.84005,-21.58121 -11.11688,-32.39109 -2.85678,-4.2438 -6.27789,-9.32553 -7.60247,-11.29274 -1.32458,-1.9672 -8.15442,-9.24731 -15.17741,-16.17803 -13.26476,-13.09045 -30.5272,-26.9145 -44.58404,-35.70364 -16.09917,-10.06612 -41.22189,-21.58812 -53.5618,-24.56496 -2.59189,-0.62526 -2.93375,-0.25688 -6.68461,7.20321 l -3.95302,7.86217 -8.8154,0.58856 c -4.84846,0.32371 -11.85289,1.53531 -15.56539,2.69244 l -6.75,2.10388 0.0271,4.20982 0.0272,4.20982 7.72285,3.65529 c 19.59417,9.27409 36.57554,22.80417 66.22286,52.76369 25.88832,26.16095 34.17592,32.42687 49.53573,37.45194 11.20271,3.66505 27.87921,4.1433 43.46427,1.24648 z m 27.99715,-6.66059 c 6.24082,-1.12376 16.33202,-3.41777 22.4249,-5.0978 13.62529,-3.75699 34.57795,-11.76461 34.57795,-13.21489 0,-0.58786 -1.66201,-5.07857 -3.69335,-9.97935 l -3.69336,-8.91051 -16.55664,0.48598 c -12.7864,0.37531 -19.51273,1.10807 -29.53797,3.21784 -17.27415,3.63528 -27.06807,6.77685 -26.84263,8.61023 0.0968,0.78743 1.37586,4.30274 2.8423,7.8118 1.46644,3.50906 3.14124,9.24656 3.72178,12.75 1.24693,7.52496 0.32185,7.28611 16.75702,4.3267 z m 89.22337,-17.00125 c 7.10762,-1.97398 8.07883,-6.65878 5.27721,-25.45556 -2.85154,-19.1317 -7.46501,-30.22645 -16.37091,-39.3698 -6.94657,-7.13178 -13.36446,-9.30722 -29.62682,-10.04246 -12.48307,-0.56437 -13.17894,-0.71173 -17.5,-3.70594 -7.08845,-4.91182 -17.65863,-9.8716 -28.26196,-13.26118 -5.36907,-1.71634 -10.37698,-3.12062 -11.12868,-3.12062 -1.37786,0 -2.87751,2.86789 -4.51263,8.62981 l -0.88818,3.1298 6.35153,1.71928 c 17.41602,4.7143 33.47534,16.29087 45.11412,32.52111 7.83698,10.92864 15.98552,25.94501 21.19386,39.05664 2.38212,5.99681 5.10151,8.26845 11.77511,9.83634 5.37179,1.26204 14.152,1.29162 18.57735,0.0626 z M 391.82982,610.44093 c 12.31808,-3.67514 31.48137,-6.72296 46.72489,-7.43136 7.2875,-0.33866 13.25,-0.88489 13.25,-1.21383 0,-1.03977 -9.7656,-17.2387 -11.80967,-19.58959 -1.78038,-2.04762 -3.15957,-2.31139 -15.3234,-2.93063 -19.6086,-0.99824 -42.78293,0.99845 -63.73126,5.49106 -2.82462,0.60578 -5.13567,1.26593 -5.13567,1.46702 0,0.20109 1.18509,1.6263 2.63354,3.16714 6.30426,6.70638 14.59295,16.70005 16.95726,20.44536 2.94833,4.67045 2.79277,4.66482 16.43431,0.59483 z M 361.97575,579.7326 c 15.05518,-3.56029 29.02682,-5.19034 50.27181,-5.86514 l 20.94285,-0.6652 -6.51457,-5.7156 c -8.70248,-7.63517 -16.74073,-12.34025 -26.17275,-15.31985 -4.29089,-1.3555 -8.05447,-2.46455 -8.3635,-2.46455 -0.67111,0 0.0744,4.78006 1.13068,7.25 1.38278,3.2333 -2.31921,1.93369 -4.05537,-1.42367 -2.817,-5.44749 -1.94191,-9.70739 6.16769,-30.02408 9.32451,-23.36033 12.60705,-30.07725 16.7542,-34.2834 6.83932,-6.93663 6.64211,-6.89423 27.96213,-6.01273 24.54353,1.01478 30.25152,0.77569 35.37027,-1.48156 6.70292,-2.95583 7.59331,-6.52728 4.8677,-19.52493 -1.68329,-8.02709 -0.98836,-12.19747 2.9325,-17.59859 1.35791,-1.87057 3.19085,-4.38336 4.0732,-5.58398 1.21691,-1.65587 1.35012,-2.65782 0.55169,-4.1497 -1.35332,-2.5287 -9.10785,-5.16736 -15.18592,-5.16736 -5.18793,0 -7.90365,-0.72397 -7.90365,-2.10699 0,-0.49115 4.8375,-0.90302 10.75,-0.91525 8.67789,-0.0179 11.15859,-0.35527 12.86973,-1.75 3.81401,-3.10875 4.3271,-5.186 2.39456,-9.69442 -2.59676,-6.058 -3.15653,-9.63567 -2.0851,-13.32656 1.12344,-3.87007 4.38217,-6.83729 8.5531,-7.78797 6.11967,-1.39487 15.04251,-4.66457 15.7524,-5.77234 1.62624,-2.53773 0.61892,-7.50238 -2.57789,-12.7053 -1.83876,-2.99264 -5.14904,-8.36617 -7.35619,-11.94117 -5.2771,-8.54753 -11.58616,-22.05381 -15.38952,-32.94552 l -3.06392,-8.77417 -28.17359,-0.60976 c -15.49547,-0.33537 -29.39034,-0.89693 -30.87748,-1.24792 -2.3635,-0.55782 -2.79359,-0.27839 -3.4163,2.21961 -1.1381,4.56544 -3.57527,9.34867 -8.64691,16.97059 -5.67245,8.52484 -6.3247,13.29807 -2.18757,16.00882 2.49588,1.63537 4.89316,1.36625 11.14978,-1.25166 2.3823,-0.99681 -2.02088,7.70887 -5.39933,10.67518 -3.9287,3.44945 -9.65518,3.95608 -15.78173,1.39625 -4.35287,-1.81874 -4.89574,-1.57084 -3.65678,1.66989 1.59259,4.16572 4.90979,6.33826 9.71786,6.36454 2.75961,0.0151 4.4197,0.47558 4.42169,1.22653 0.002,0.66131 -2.17698,3.38256 -4.84164,6.04721 l -4.84483,4.84483 3.37572,3.90513 c 7.08854,8.20023 8.31185,23.22165 2.7268,33.48323 -1.58164,2.90599 -5.24657,7.94069 -8.14429,11.18822 -4.24673,4.7594 -5.26857,6.58885 -5.26857,9.43254 0,7.97931 5.09418,9.8867 11.4652,4.29287 l 3.5348,-3.10359 0,5.13571 c 0,8.05473 -3.00794,13.48465 -10.10042,18.23325 -1.91956,1.28519 -1.9352,1.51655 -0.39463,5.83822 3.28902,9.22652 -0.40608,16.78529 -12.71008,26 -5.81217,4.35285 -7.23366,6.8475 -6.40841,11.24645 1.01715,5.42192 2.86452,7.2081 7.45502,7.2081 l 4.03595,0 -2.57504,4.7312 c -3.14785,5.78363 -8.63917,9.81425 -13.37095,9.81425 -3.84351,0 -9.75617,-2.8224 -13.78983,-6.58257 -2.4874,-2.31875 -2.65968,-2.34892 -2.9511,-0.51674 -0.17022,1.07017 0.62643,3.78031 1.77032,6.02254 l 2.07982,4.07677 -4.34219,0 c -6.3261,0 -12.91849,-2.58716 -17.59612,-6.90552 -3.34796,-3.09082 -4.10234,-3.4404 -4.10234,-1.90103 0,1.03742 0.893,3.63665 1.98444,5.77606 1.84775,3.62189 1.86497,3.91406 0.25,4.24152 -3.35073,0.6794 -12.35432,-1.07126 -16.5226,-3.21266 -2.31651,-1.19008 -6.33297,-4.23103 -8.92546,-6.75766 -5.46023,-5.32151 -6.46347,-4.60548 -5.45676,3.89457 l 0.59296,5.00663 -3.21129,-0.67235 c -5.95799,-1.24743 -11.2227,-4.12818 -15.47806,-8.4693 -2.32828,-2.37519 -4.23323,-4.89536 -4.23323,-5.60038 0,-2.35672 -1.85963,-2.46692 -3.94039,-0.23349 -1.30729,1.40321 -2.05961,3.55741 -2.05961,5.89749 0,3.63876 0.12009,3.74869 9.22377,8.44325 18.95472,9.77451 42.06265,25.5939 55.27623,37.84138 3.3,3.05873 6.75197,5.58161 7.67104,5.60641 0.91908,0.0248 5.41908,-0.84127 10,-1.92458 z M 476.02722,400.14556 c -2.5555,-1.78995 -3.02902,-7.42697 -1.01878,-12.1282 l 1.20374,-2.8151 0.31621,3.5 c 0.78654,8.70595 2.70749,10.01923 8.77632,6 1.65,-1.09275 3.87453,-1.98979 4.94341,-1.99341 1.49355,-0.005 0.82485,1.03507 -2.88884,4.49341 -5.13269,4.77979 -7.74238,5.45761 -11.33206,2.9433 z m -11.72251,-55.30532 c -6.05,-2.05332 -13.7,-5.01988 -17,-6.59234 l -6,-2.85903 10.5,-1.37083 c 5.775,-0.75396 14.8875,-2.41923 20.25,-3.7006 7.21838,-1.72484 9.75,-2.00549 9.75,-1.08088 0,0.68688 -1.03017,1.50744 -2.28927,1.82345 -1.95922,0.49174 -2.43999,1.5526 -3.33476,7.35841 -0.8455,5.48611 -0.78615,6.93907 0.31029,7.5953 1.30301,0.77986 0.92987,2.75691 -0.49528,2.62419 -0.38004,-0.0354 -5.64098,-1.74434 -11.69098,-3.79767 z m 6.72312,-5.88798 c 0.23347,-2.6125 0.3681,-4.84818 0.29917,-4.96819 -0.0689,-0.12 -4.05396,0.50318 -8.85562,1.38486 -4.80166,0.88167 -8.45722,1.87611 -8.12347,2.20986 0.84093,0.84093 13.69478,6.00689 15.10611,6.07115 0.65576,0.0299 1.3316,-1.98744 1.57381,-4.69768 z M 332.15098,531.6836 c -0.58622,-2.9311 2.04757,-11.98191 3.48644,-11.98085 0.36701,2.7e-4 2.61027,2.25668 4.98503,5.01424 5.88948,6.83883 15.14423,11.59154 13.69786,7.03444 -0.75503,-2.37892 0.89821,-8.89299 2.93897,-11.58007 1.43921,-1.895 1.68664,-1.75392 6.57536,3.74906 7.12706,8.02256 13.38449,9.43855 18.17865,4.11363 1.63022,-1.8107 1.55617,-2.01933 -1.61487,-4.54957 -4.24058,-3.38363 -6.05912,-9.65583 -4.383,-15.11711 1.10763,-3.60899 5.87638,-8.69906 14.06898,-15.01695 4.51834,-3.4844 6.01405,-8.19275 4.65332,-14.64816 -2.36956,-11.24138 -2.53668,-10.29993 2.2188,-12.5 2.53004,-1.1705 5.07047,-3.31068 6.12518,-5.16015 l 1.80216,-3.16015 -3.89773,0.52279 c -3.32307,0.44572 -4.3978,0.076 -7.28957,-2.50782 -3.13332,-2.79962 -3.39185,-3.48232 -3.39185,-8.95695 0,-5.78753 0.13841,-6.08808 5.90964,-12.83203 8.34415,-9.75054 10.91783,-15.747 10.40064,-24.23257 -0.63464,-10.41239 -6.63425,-20.15061 -12.44197,-20.19508 -7.1057,-0.0544 -15.23735,-6.44372 -19.69884,-15.47804 -4.03139,-8.1634 -5.00335,-15.12501 -3.73697,-26.76578 l 1.10218,-10.13144 -2.76734,-2.33285 c -1.52204,-1.28307 -3.80913,-2.7687 -5.08244,-3.30139 -9.7844,-4.09337 -22.89488,5.20619 -24.71577,17.53146 -0.83779,5.67085 2.6732,16.17367 7.81801,23.3869 8.45932,11.86029 15.92134,21.25587 17.30246,21.78586 2.83752,1.08885 6.46592,-0.79954 9.05576,-4.71306 2.51529,-3.80085 2.74278,-3.91841 4.50194,-2.32639 1.80292,1.63161 1.80127,1.76005 -0.061,4.77172 -2.64881,4.2836 -7.74804,7.59497 -11.69562,7.59497 -3.02953,0 -3.42403,0.36431 -4.60212,4.25 -1.47288,4.85802 -1.57544,22.19592 -0.32163,54.37316 l 0.82308,21.12316 -7.395,-1.40602 c -16.88791,-3.21092 -32.48637,-4.46877 -61.89501,-4.99118 l -30.5,-0.54179 -2.41268,5.68495 c -1.90366,4.48557 -4.02797,7.09032 -10.06905,12.34633 -8.48797,7.38491 -11.34482,11.06281 -12.8624,16.55903 -1.27228,4.60783 0.0584,9.18882 3.61565,12.44689 2.22651,2.03927 3.22176,2.26488 7.64414,1.7328 4.56822,-0.54963 6.09622,-0.15318 15.05249,3.90547 5.48249,2.48446 10.26991,4.5172 10.63871,4.5172 0.36881,0 0.95253,-1.50303 1.29716,-3.34007 0.72474,-3.86319 3.65212,-6.93915 8.5732,-9.0083 l 3.46294,-1.45606 3.11795,5.65221 c 4.45253,8.07153 12.44189,13.13588 12.44189,7.88675 0,-2.53313 4.21394,-10.97251 5.73134,-11.47831 0.53793,-0.17931 2.27157,1.37719 3.85255,3.45888 4.24966,5.59558 8.4204,9.26704 12.91611,11.36995 6.01064,2.81152 7.57875,2.55872 6.84627,-1.10371 z m 24.08815,-156.23134 c -4.17237,-4.94289 -8.43503,-14.69155 -8.41718,-19.25 0.0222,-5.66651 3.59279,-11.36421 9.35366,-14.92589 4.69248,-2.90113 4.89129,-2.93603 6.23758,-1.09487 1.25607,1.71778 1.1213,2.01502 -1.3929,3.07216 -4.27022,1.7955 -9.06873,7.1489 -9.77304,10.90319 -0.82138,4.37832 1.61238,12.68465 5.51723,18.83014 1.67213,2.6316 3.04023,4.9941 3.04023,5.25 0,1.3854 -2.15508,0.0709 -4.56558,-2.78473 z M 236.93904,486.2584 c 0.41214,-6.08088 0.33892,-17.58114 -0.16271,-25.55614 -2.00216,-31.83035 -8.36489,-56.07493 -26.7688,-102 -13.50958,-33.71178 -19.60735,-58.54424 -20.87229,-85 -1.24528,-26.04464 5.54822,-56.82966 18.25168,-82.70818 23.93932,-48.76737 69.2727,-83.47675 124.94157,-95.661153 18.92977,-4.143214 28.0989,-5.100654 48.97622,-5.114091 16.88686,-0.01087 21.6344,0.333156 30.5,2.210144 12.78255,2.706268 28.19582,7.080096 37.18021,10.55064 l 6.68021,2.58048 6.11369,-11.051693 c 3.36252,-6.078429 5.98143,-11.174148 5.81979,-11.323821 -0.88725,-0.821541 -13.38662,-5.608567 -20.2939,-7.772182 -31.71664,-9.934822 -66.69431,-11.476933 -104,-4.585199 -16.53946,3.055447 -24.67315,5.303555 -42,11.608564 -39.7939,14.480474 -74.68026,41.841451 -98.48002,77.236781 -22.80381,33.91412 -36.31217,83.46121 -33.04873,121.21888 2.55329,29.5413 8.32399,51.50114 19.9889,76.06583 12.92504,27.21834 20.15248,48.34651 24.20017,70.745 1.64028,9.07673 2.18398,17.18942 2.58018,38.5 l 0.50199,27 8.11078,4.14124 c 8.07606,4.12351 8.11704,4.13232 9.57124,2.05614 0.92248,-1.31701 1.7365,-6.15784 2.20982,-13.14124 z m 14.86845,-3.55614 c 1.87719,-1.58075 4.99722,-7.16892 4.99722,-8.95034 0,-0.57731 -1.05896,-1.04966 -2.35324,-1.04966 -2.29679,0 -2.37,-0.28016 -3.05137,-11.67711 -1.39582,-23.34709 -7.17964,-49.30938 -19.67639,-88.32289 -12.06921,-37.67879 -13.98615,-43.95499 -18.00248,-58.94149 -5.81281,-21.68984 -8.21899,-37.16893 -8.32552,-53.55851 -0.10138,-15.59738 1.13478,-23.56449 5.66328,-36.5 16.659,-47.58587 56.65957,-78.53247 115.03954,-89.00077 7.85035,-1.40767 11.57697,-2.53195 12.44436,-3.75432 2.88428,-4.0647 6.76363,-7.25327 10.14483,-8.33839 1.98935,-0.63843 6.31699,-2.94774 9.61699,-5.13178 5.45238,-3.60856 6.45635,-3.92698 11,-3.48872 3.53823,0.34128 6.02324,-0.0271 8.5,-1.25997 7.28862,-3.62817 13.94297,-3.32207 19.13241,0.88009 l 2.32174,1.88002 -5.26864,4.73696 c -5.99395,5.38908 -8.18551,9.0048 -8.18551,13.50477 l 0,3.1272 5.25,-4.62068 c 7.23547,-6.36815 19.01809,-12.13703 26.58232,-13.01495 l 6.0416,-0.7012 1.54917,-4.54655 c 0.85204,-2.5006 2.72585,-6.08926 4.16402,-7.97481 1.43818,-1.88554 2.44273,-3.60039 2.23235,-3.81077 -0.21038,-0.21038 -5.99332,-1.53216 -12.85098,-2.937276 -43.5095,-8.915007 -86.32435,-3.905013 -126.46848,14.798756 -6.05,2.81879 -11.45,5.48126 -12,5.9166 -0.55,0.43534 -5.05,3.4264 -10,6.64679 -45.14634,29.37151 -74.14175,81.36757 -76.16837,136.589 -1.1088,30.21273 4.97608,57.80615 21.16986,96 20.88481,49.25788 26.49851,73.26133 26.49851,113.30417 l 0,18.36389 4.11074,-3.33403 c 2.26091,-1.83372 4.91233,-4.00903 5.89204,-4.83403 z m 105.82535,-14.57817 c 0.18047,-2.70701 -0.4366,-13.39485 -1.37126,-23.75076 -1.95332,-21.64245 -1.60493,-32.70325 1.29383,-41.07754 l 2.04453,-5.90646 -4.37692,-6.01518 -4.37693,-6.01518 -1.43265,3.42883 c -3.27768,7.84458 -3.79505,15.69781 -3.04991,46.2944 l 0.72885,29.92759 -3.39384,-0.69235 c -18.81002,-3.8373 -31.31722,-4.9821 -55.14371,-5.04737 l -24.74987,-0.0678 -0.0197,-7.5 c -0.0263,-10.0483 -2.2299,-25.97869 -5.53301,-40 -1.49003,-6.325 -2.91813,-12.46211 -3.17354,-13.63802 -0.39761,-1.83055 0.30432,-2.38802 4.88078,-3.87635 11.84818,-3.85318 37.59311,-18.71414 47.9883,-27.70067 1.45372,-1.25673 6.82391,-5.65996 11.93376,-9.78496 10.83599,-8.74752 15.77116,-13.62349 21.78194,-21.52067 3.29205,-4.32521 4.03758,-5.92532 3.04622,-6.53801 -1.57296,-0.97214 -1.45493,-1.06088 -20.52261,15.42956 -17.35436,15.00868 -26.65855,22.24662 -38.62087,30.04406 -15.00116,9.77825 -32.23768,17.17715 -33.30179,14.29504 -1.4387,-3.89668 -16.33152,-50.74017 -20.41411,-64.20998 -12.05717,-39.78062 -14.87307,-67.1265 -9.14824,-88.84074 12.12892,-46.00494 49.58444,-78.23788 103.60257,-89.15681 l 11,-2.22349 0.32109,-3.24309 0.32108,-3.2431 -5.32108,0.70587 c -7.28061,0.96582 -29.68503,6.75255 -38.82109,10.02692 -10.51522,3.76867 -25.84195,11.55418 -34.42075,17.4847 -30.95068,21.39619 -49.57925,57.10902 -49.57925,95.04837 0,23.94435 3.77232,40.81865 21.00098,93.94137 17.64149,54.39565 23.1105,77.16719 24.67528,102.74147 l 0.62767,10.25853 23.04147,0 c 24.9839,0 42.84464,1.11772 63.1546,3.95221 7.15,0.99787 13.45,1.71916 14,1.60288 0.55,-0.11629 1.14766,-2.42625 1.32813,-5.13326 z m -16.0873,-38.67183 -0.24083,-29.25 2.81898,-9.60395 2.81897,-9.60395 -2.66268,-3.89605 c -5.2597,-7.69603 -8.3373,-14.9908 -9.8706,-23.39605 -0.25083,-1.375 -0.5038,-2.725 -0.56216,-3 -0.0584,-0.275 -0.65431,0.175 -1.32431,1 -1.58678,1.95384 -12.47662,11.21968 -20.7182,17.6285 -14.32505,11.13944 -32.33594,21.81819 -46.25794,27.42657 -4.19608,1.69036 -5.62857,2.74342 -5.28101,3.88223 2.81017,9.2078 6.8483,32.39427 8.02222,46.0627 l 0.64414,7.5 22.18629,0.23769 c 15.92416,0.1706 25.43221,0.76563 33.6863,2.10813 6.325,1.02874 12.73338,1.93428 14.24083,2.01231 l 2.74084,0.14187 -0.24084,-29.25 z m 59.25264,-46.71019 c 2.39762,-1.84207 2.41684,-1.94388 0.5,-2.64814 -2.97155,-1.09178 -6.29254,-4.66654 -7.89237,-8.49546 -1.67783,-4.01562 -2.41508,-12.93604 -1.05154,-12.72319 0.52274,0.0816 3.65044,1.4257 6.95044,2.98689 5.87852,2.78104 13.5,3.81987 13.5,1.84009 0,-0.55 -0.64991,-1 -1.44424,-1 -0.79433,0 -2.65212,-1.03898 -4.12842,-2.30884 -2.0594,-1.77143 -2.7886,-3.45897 -3.13277,-7.25 -0.40373,-4.4471 -0.0373,-5.59108 3.66477,-11.44116 4.38301,-6.92611 8.67407,-15.54499 9.21309,-18.50512 0.28493,-1.56471 -1.4253,-2.11987 -13.13815,-4.2648 l -13.46572,-2.46593 -1.53428,2.22889 c -8.07727,11.73405 -11.93143,19.46854 -13.07254,26.23377 -1.59829,9.47575 -0.59821,19.7032 2.61241,26.71611 3.16123,6.90506 4.90839,8.87232 9.92585,11.17635 5.13531,2.35814 9.35566,2.3313 12.49347,-0.0795 z m -135.40268,-2.6565 c 2.79994,-1.30785 7.85414,-4.16395 11.23156,-6.34689 4.76928,-3.08253 5.99854,-4.36734 5.50397,-5.75269 -1.43343,-4.01522 -2.29887,-4.2893 -12.73504,-4.03318 -11.46936,0.28147 -14.25725,-0.77014 -17.21743,-6.49449 -2.2714,-4.39241 -2.00603,-15.35466 0.58712,-24.25288 2.42109,-8.30783 2.58836,-14.25269 0.53903,-19.15742 -1.9187,-4.59211 -2.00655,-4.34576 1.54966,-4.34576 5.99198,0 12.93546,6.03356 12.9466,11.25 0.003,1.21099 0.79401,1.75 2.56948,1.75 1.41116,0 3.47442,0.48631 4.58502,1.08068 2.09141,1.11929 5.78875,8.15747 5.82728,11.09268 0.0201,1.53114 -0.23699,1.54417 -3.02494,0.15336 -5.66613,-2.82664 -11.82789,1.33967 -10.39931,7.03156 1.01507,4.04436 3.87459,4.20127 11.60747,0.63696 6.73373,-3.10378 9.66413,-3.42194 14.08874,-1.52968 1.41684,0.60594 1.75,0.23959 1.75,-1.92431 0,-1.47 -0.46583,-3.54315 -1.03518,-4.60699 -0.84403,-1.57707 -0.70553,-1.93304 0.75,-1.92767 4.45627,0.0164 12.245,8.5641 12.29537,13.49341 0.0571,5.58667 1.52761,4.92925 16.12282,-7.20797 7.90185,-6.57108 14.90799,-12.60766 15.5692,-13.41461 0.95832,-1.16954 0.71785,-2.47926 -1.18537,-6.45605 -1.31318,-2.74389 -3.52132,-9.57095 -4.90698,-15.17127 -3.11054,-12.57158 -4.70357,-15.2501 -9.06988,-15.2501 -3.69204,0 -5.76279,1.89569 -8.04979,7.36925 -1.89063,4.52489 -3.20158,3.92412 -6.55554,-3.00425 -3.97149,-8.204 -2.39961,-17.47427 3.79537,-22.38347 2.38023,-1.88621 3.64939,-2.1259 9.01998,-1.70345 3.4375,0.27039 6.22111,0.20593 6.1858,-0.14323 -0.0353,-0.34917 -0.60904,-3.21291 -1.27494,-6.36388 -1.14058,-5.39708 -1.56012,-5.97649 -7.2408,-10 -11.62548,-8.23407 -11.60436,-8.20998 -10.91927,-12.45959 1.27424,-7.90412 1.397,-8.12322 5.24876,-9.36856 2.06275,-0.66692 5.66295,-3.13176 8.00045,-5.47742 3.89259,-3.90617 4.25,-4.69591 4.25,-9.3908 l 0,-5.12596 -2.93547,1.51799 c -1.61451,0.8349 -6.45201,4.51239 -10.75,8.17222 -9.43407,8.03329 -12.87459,9.5941 -21.04466,9.54696 -8.04001,-0.0464 -15.62289,-3.41443 -21.6505,-9.61638 -3.92682,-4.0404 -10.17517,-14.34697 -9.25543,-15.26671 0.18931,-0.18931 2.73418,0.16836 5.65525,0.79482 5.99921,1.2866 14.83695,0.5611 18.81694,-1.54471 1.46513,-0.77519 5.50199,-4.17428 8.97079,-7.55352 6.41534,-6.24968 14.67465,-10.97639 19.19308,-10.98396 4.52474,-0.008 9.88457,2.01348 14.32161,5.40034 l 4.36866,3.33468 4.40487,-3.99772 c 2.42267,-2.19875 5.83659,-4.61077 7.58648,-5.36004 4.69987,-2.01239 4.80469,-2.99273 0.763,-7.13576 -5.93215,-6.08089 -6.93049,-11.38848 -3.54448,-18.84395 1.62384,-3.57545 1.68973,-4.48304 0.52631,-7.25 -0.73145,-1.73959 -1.46413,-3.16282 -1.62818,-3.16273 -0.16405,1e-4 -3.85578,0.68092 -8.20384,1.51294 -33.64366,6.43785 -59.2015,18.94104 -77.31825,37.82497 -18.31723,19.09292 -28.02661,42.25463 -29.00517,69.19184 -0.86973,23.9413 2.30808,38.98136 19.32665,91.47008 5.79566,17.875 10.72992,33.09353 10.96503,33.81895 0.49993,1.54257 2.60687,1.03084 10.0281,-2.43564 z m 35.52723,-23.8336 c 2.42979,-2.16243 2.56025,-2.69547 1.81443,-7.41351 -0.44198,-2.79595 -1.25233,-5.88289 -1.80078,-6.85987 -0.93459,-1.66485 -1.03788,-1.65081 -1.64578,0.22367 -0.35673,1.1 -1.05754,3.02391 -1.55736,4.27537 l -0.90877,2.27536 -3.97004,-2.02536 c -5.14011,-2.62229 -5.69479,-2.5814 -13.20993,0.97384 -7.85152,3.71438 -9.97576,3.74461 -13.94462,0.19843 -2.63919,-2.35812 -3.12681,-3.49648 -3.07596,-7.18091 0.0713,-5.17015 2.6126,-9.09524 6.78294,-10.4766 3.85755,-1.27775 4.0774,-1.50211 2.45471,-2.50499 -0.76187,-0.47086 -2.88634,-0.61252 -4.72104,-0.31478 -2.89841,0.47034 -3.33582,0.26457 -3.33582,-1.56928 0,-2.63828 -2.94984,-10.15108 -3.98574,-10.15108 -0.42272,0 -0.54626,1.9725 -0.27452,4.38334 0.3272,2.90294 -0.4361,8.08442 -2.26008,15.34196 -3.30845,13.16416 -2.96872,18.95825 1.30891,22.32303 2.45299,1.92952 3.44502,2.04583 11.98679,1.40543 l 9.31247,-0.69818 3.70608,3.96239 3.70609,3.96239 5.5,-3.90034 c 3.025,-2.14519 6.67811,-4.94883 8.11802,-6.23031 z m 78.11409,-30.98642 c 6.43295,-9.93262 6.53691,-10.31992 3.11955,-11.62215 -6.89182,-2.62622 -7.82811,-2.42857 -9.86206,2.08192 -1.04083,2.30816 -3.20283,5.59945 -4.80443,7.31397 -2.6672,2.85524 -2.76427,3.20329 -1.15463,4.14014 0.96655,0.56256 2.93009,2.02111 4.36341,3.24123 1.43333,1.22012 2.83105,2.20332 3.10605,2.18489 0.275,-0.0184 2.62945,-3.32144 5.23211,-7.34 z m -17.36285,-3.4702 c 2.69259,-1.91729 8.92822,-11.76052 7.94797,-12.54623 -2.65184,-2.12556 -12.24313,-7.53232 -14.94196,-8.42301 -9.58213,-3.16239 -13.68424,-16.15252 -7.32109,-23.18371 1.54282,-1.70481 1.46469,-2.20085 -1.20205,-7.63173 -2.5863,-5.26704 -2.85213,-6.78707 -2.85213,-16.30841 0,-9.60885 0.23547,-10.92436 2.77443,-15.5 3.67387,-6.62093 8.49933,-9.88961 14.5681,-9.86814 10.08709,0.0357 15.09468,6.16065 15.13551,18.5128 0.0252,7.63336 -2.79027,17.82597 -6.38885,23.12877 l -2.42153,3.56833 2.01855,1.82676 c 2.72789,2.46871 4.81379,6.69209 4.81379,9.74664 0,2.0836 2.33997,4.58484 4.28922,4.58484 0.23139,0 0.67927,-3.0842 0.9953,-6.85379 0.7302,-8.70974 3.08499,-16.87096 7.28755,-25.25706 6.80514,-13.57947 9.01637,-24.54574 6.3666,-31.57405 -1.53337,-4.06713 -6.68394,-9.09418 -12.43867,-12.14036 -4.28141,-2.26631 -6.22161,-2.64516 -13.5,-2.63609 -6.97885,0.009 -9.39479,0.449 -13.5,2.46034 -13.33867,6.53526 -22.5,23.04691 -22.5,40.55218 0,7.10108 0.96089,11.25785 4.88877,21.1487 l 2.06498,5.19986 -7.19866,-3.44986 c -7.30078,-3.49881 -12.34317,-4.27587 -15.78687,-2.43286 -2.36664,1.26658 -4.17886,7.67981 -3.34635,11.84234 l 0.62603,3.13017 3.41085,-2.99476 c 2.608,-2.28985 4.38062,-2.99476 7.53088,-2.99476 3.49917,0 4.68792,0.59696 7.8884,3.96137 3.13413,3.29466 4.04598,5.27221 5.41791,11.75 2.91296,13.75407 4.71474,18.61252 8.21835,22.16064 3.11504,3.15459 3.6727,3.34356 8.64935,2.93086 3.36262,-0.27886 6.49171,-1.27574 8.50562,-2.70978 z m 135.63074,-4.68773 c 28.29256,-2.96062 64.96611,-10.62436 70.07621,-14.64396 4.86186,-3.82434 1.87273,-9.40668 -6.33266,-11.82656 -2.34104,-0.6904 -4.49113,-1.02059 -4.77798,-0.73375 -0.28684,0.28684 -0.0422,1.78222 0.54361,3.32306 0.58583,1.54084 0.71092,3.12226 0.27798,3.51427 -1.53159,1.38681 -19.91683,6.96785 -29.28716,8.89045 -17.30889,3.55142 -29.12261,4.37474 -54,3.76332 -30.18203,-0.74178 -54.16215,-4.21019 -88.41452,-12.78801 -9.2623,-2.31956 -12.98004,-2.8838 -13.49639,-2.04833 -0.39196,0.6342 -2.14188,2.20754 -3.88871,3.49631 l -3.17605,2.34322 4.73783,2.54791 c 25.1986,13.55124 77.82152,19.38545 127.73784,14.16207 z m 1.5,-13.40337 c 23.22464,-1.98097 52,-7.60015 52,-10.15444 0,-2.15166 -9.36455,-15.31264 -14.29293,-20.08734 -5.80352,-5.62255 -16.07261,-13.83945 -26.23474,-20.99194 l -6.72276,-4.73173 -0.32164,-13.5187 c -0.94183,-39.58594 -13.59525,-66.89118 -38.98099,-84.11841 -4.30122,-2.91888 -20.95744,-11.39943 -22.38906,-11.39943 -0.54014,0 1.48771,5.0625 4.50633,11.25 3.60421,7.38783 6.07838,14.11027 7.20693,19.58158 l 1.71851,8.33158 -3.99482,3.47722 c -6.23808,5.4298 -6.53041,5.60962 -9.11957,5.60962 -3.23728,0 -6.24182,-2.80288 -8.56136,-7.98671 -1.04265,-2.3302 -2.81586,-4.72916 -3.94046,-5.33103 -4.76921,-2.5524 -3.00953,1.7795 4.08965,10.06774 2.59103,3.025 5.7859,7.37616 7.09971,9.66925 l 2.38875,4.16925 4.18445,-3.8571 c 5.15424,-4.751 9.78091,-5.84575 14.49252,-3.42917 1.85431,0.95108 7.36627,5.78666 12.24879,10.74575 8.69552,8.83187 12.78557,15.26641 14.20033,22.34023 l 0.60259,3.01295 -8.84011,1.25317 c -4.86207,0.68924 -9.56834,1.45424 -10.45839,1.7 -1.33652,0.36903 -1.7388,-0.77638 -2.31055,-6.57875 -0.50514,-5.12632 -1.08142,-7.02558 -2.13173,-7.02558 -0.7917,0 -1.43945,-0.39752 -1.43945,-0.88337 0,-0.48585 -0.871,-1.11114 -1.93556,-1.38953 -1.46113,-0.38209 -2.79066,0.71533 -5.42412,4.4772 l -3.48855,4.98335 2.67412,3.12205 c 10.13462,11.83224 22.74176,23.65542 31.67411,29.7045 12.29265,8.32471 15.26891,10.99536 13.36486,11.99254 -0.75067,0.39314 -4.96486,1.26299 -9.36486,1.93299 -4.4,0.67001 -8.94474,1.43944 -10.09943,1.70985 -1.59098,0.37258 -2.38708,-0.19145 -3.28719,-2.32896 -0.86668,-2.05814 -3.06694,-3.70558 -8.13931,-6.09431 -4.13743,-1.94844 -9.48621,-5.64215 -13.21281,-9.12439 -3.44369,-3.21789 -10.31126,-8.27647 -15.26126,-11.2413 l -9,-5.39059 -3.51348,1.73435 c -1.93241,0.95388 -8.37239,2.4562 -14.31106,3.33847 -17.47627,2.59634 -16.92011,2.23017 -22.7542,14.98104 -5.58994,12.21728 -7.88439,20.39826 -7.90648,28.19093 -0.0113,3.9753 0.40588,5.43994 1.75498,6.16196 5.79258,3.10009 52.1794,11.2993 70.23024,12.4137 12.40437,0.76581 32.19628,0.63302 43,-0.28849 z m -11.5,-56.94966 -11,-0.55233 11.29181,-2.87485 c 6.2105,-1.58117 11.43336,-2.70617 11.60636,-2.5 0.173,0.20617 0.59294,1.83735 0.93319,3.62485 0.43383,2.27911 0.25269,3.19095 -0.60636,3.05233 -0.67375,-0.10872 -6.175,-0.44622 -12.225,-0.75 z m -124.1174,48.9923 c 3.45288,-1.31278 5.8174,-5.27076 5.8174,-9.73778 0,-7.40203 -10.07671,-12.19735 -15.83296,-7.53461 -4.4367,3.59386 -5.2956,7.4687 -2.81449,12.69727 2.33723,4.92532 7.27641,6.68661 12.83005,4.57512 z m 1.27691,-26.79547 c 3.51263,-4.15598 6.34049,-14.34578 6.34049,-22.84708 0,-7.01795 -0.20812,-7.76405 -2.92308,-10.479 -5.62496,-5.62497 -15.28697,-2.17686 -18.66174,6.65985 -2.25625,5.9079 -1.58415,19.08902 1.30308,25.5561 l 2.07111,4.63904 4.85531,-0.48694 c 3.60668,-0.36172 5.41068,-1.14402 7.01483,-3.04197 z m 122.21549,-3.87416 c 1.71875,-0.34375 3.125,-0.90726 3.125,-1.25225 0,-0.34499 -3.54969,-2.7889 -7.88821,-5.43091 -5.62951,-3.42818 -10.42567,-7.56756 -16.75,-14.45627 -4.87398,-5.30894 -11.16352,-12.11063 -13.97673,-15.11487 l -5.11495,-5.46224 5.61495,-8.76996 c 3.08821,-4.82348 6.03789,-8.79663 6.55483,-8.82923 0.51693,-0.0326 4.00443,1.79236 7.75,4.05546 6.75264,4.08001 6.81011,4.15174 6.81011,8.5 l 0,4.38527 4.5,0 c 5.03448,0 5.25022,-0.50201 2.67584,-6.22635 -1.8419,-4.0956 -17.49041,-20.56335 -20.67066,-21.75282 -3.4449,-1.28846 -7.23182,0.93256 -11.6029,6.8051 -2.32285,3.12074 -4.37421,5.85967 -4.55859,6.08651 -0.18438,0.22684 -1.46214,-0.10101 -2.83946,-0.72856 -1.88101,-0.85704 -2.50423,-1.9053 -2.50423,-4.2121 0,-4.06066 -2.2149,-8.19362 -8.29149,-15.47178 -2.7552,-3.3 -5.83186,-7.8 -6.83702,-10 -1.86473,-4.08135 -2.54975,-13.96278 -1.03294,-14.90022 1.37724,-0.85118 15.98946,10.26113 16.66404,12.67269 1.20723,4.31569 2.85412,6.72753 4.59381,6.72753 2.30085,0 5.9036,-4.63602 5.9036,-7.59676 0,-4.56277 -4.885,-17.59725 -9.90195,-26.42105 -2.80393,-4.93154 -5.09805,-9.3633 -5.09805,-9.84836 0,-0.48506 1.14964,-2.93885 2.55475,-5.45288 l 2.55476,-4.57095 -5.23626,-1.555 c -14.66006,-4.35357 -29.56956,0.13103 -41.75136,12.55832 l -4.06169,4.14355 3.13942,4.37156 c 1.72668,2.40436 3.34088,4.37157 3.58712,4.37157 0.24623,0 2.75745,-2.29407 5.58048,-5.09792 5.30263,-5.26663 13.06134,-9.90208 16.57386,-9.90208 1.17907,0 2.59493,-1.13586 3.43086,-2.75236 0.78282,-1.5138 2.44002,-3.6513 3.68267,-4.75 l 2.25937,-1.99764 -0.64333,2.5 c -0.35384,1.375 -0.64949,4.35453 -0.657,6.62117 l -0.0136,4.12117 -4.75,0.67186 c -2.6125,0.36953 -6.1877,1.44 -7.94488,2.37883 -3.55198,1.89774 -13.30517,10.90239 -13.30517,12.28399 0,0.48572 2.5875,3.73949 5.75,7.23061 6.54879,7.22928 11.96466,16.37771 10.53937,17.803 -0.57658,0.57658 -3.24694,-2.03348 -6.99709,-6.8391 -3.33557,-4.27434 -10.05338,-11.98918 -14.92847,-17.14408 -10.20783,-10.79371 -13.25467,-15.82114 -13.31862,-21.97632 -0.0538,-5.17862 1.83163,-9.47895 6.59675,-15.04592 l 3.51391,-4.10521 -3.61005,0 c -3.98186,0 -10.5458,2.37435 -10.5458,3.8147 0,0.52148 -1.68812,0.60806 -3.91523,0.2008 -4.69328,-0.85823 -10.19913,0.81258 -13.94751,4.23251 -1.45049,1.3234 -4.58217,3.01671 -6.95928,3.76291 -6.30917,1.98053 -8.51548,5.23324 -7.86946,11.60177 0.28525,2.81199 1.7258,7.49492 3.20122,10.40653 l 2.68259,5.29384 -2.23253,3.97225 c -1.29769,2.30893 -2.23253,5.68323 -2.23253,8.05831 0,3.59229 0.56217,4.59502 4.65214,8.2979 l 4.65213,4.21185 -1.22816,4.59196 c -1.09944,4.11066 -1.62654,4.69923 -5.0289,5.6154 -4.38192,1.17993 -9.77734,5.5898 -12.7767,10.44285 l -2.07889,3.36373 -4.04095,-4.3839 c -4.44654,-4.82393 -11.01447,-8.48341 -15.22578,-8.48341 -5.85819,0 -9.16332,2.28541 -20.0025,13.83119 -4.13945,4.4093 -9.2399,6.51696 -16.89966,6.98343 -3.7125,0.22609 -6.75,0.7929 -6.75,1.25958 0,2.04094 8.3583,8.85988 12.65414,10.32362 9.72834,3.31478 15.58728,1.6298 26.56042,-7.63855 12.45047,-10.51616 15.88534,-11.75028 20.33089,-7.30472 2.65432,2.65431 3.35548,9.04563 1.52154,13.86926 -1.55789,4.09755 -7.11177,9.66519 -12.22697,12.25726 -4.05056,2.05257 -4.82992,2.89843 -4.77812,5.18578 0.0466,2.05599 1.19152,3.55767 4.6213,6.06108 6.86017,5.00727 6.82056,5.01843 8.66111,-2.44002 4.32001,-17.5059 14.43677,-30.4922 27.65569,-35.50002 11.2399,-4.25809 25.73728,-1.1548 35.88583,7.68169 5.7358,4.99423 8.06439,10.24517 8.09221,18.24781 0.0193,5.54357 0.23632,6.25338 1.77196,5.79487 0.9625,-0.28739 7.08157,-1.50221 13.59794,-2.6996 8.64455,-1.58845 12.55055,-2.78144 14.44656,-4.41232 l 2.59862,-2.23524 6.55344,4.16237 c 3.60439,2.2893 8.80344,5.45207 11.55344,7.02836 2.75,1.5763 6.49584,4.59157 8.32409,6.7006 3.74235,4.31711 13.26328,10.26458 18.15017,11.33792 2.07992,0.45682 3.82425,1.74401 4.88114,3.60193 1.82619,3.2103 1.66562,3.14952 6.0196,2.27872 z"
     id="path2987"
     inkscape:connector-curvature="0"
     inkscape:export-xdpi="63.860001"
     inkscape:export-ydpi="63.860001" />
</svg>
